G04*
G04 #@! TF.GenerationSoftware,Altium Limited,Altium Designer,21.2.2 (38)*
G04*
G04 Layer_Color=128*
%FSAX44Y44*%
%MOMM*%
G71*
G04*
G04 #@! TF.SameCoordinates,B3D4D19D-0097-4332-AE52-39C81B215F30*
G04*
G04*
G04 #@! TF.FilePolarity,Positive*
G04*
G01*
G75*
%ADD20C,0.0508*%
D20*
X00369650Y00425450D02*
X00379650D01*
X00374650Y00420450D02*
Y00430450D01*
X00369650Y00450850D02*
X00379650D01*
X00374650Y00445850D02*
Y00455850D01*
X00369650Y00476250D02*
X00379650D01*
X00374650Y00471250D02*
Y00481250D01*
X00369650Y00552450D02*
X00379650D01*
X00374650Y00547450D02*
Y00557450D01*
X00369650Y00527050D02*
X00379650D01*
X00374650Y00522050D02*
Y00532050D01*
X00369650Y00501650D02*
X00379650D01*
X00374650Y00496650D02*
Y00506650D01*
X00369650Y00273050D02*
X00379650D01*
X00374650Y00268050D02*
Y00278050D01*
X00369650Y00298450D02*
X00379650D01*
X00374650Y00293450D02*
Y00303450D01*
X00369650Y00323850D02*
X00379650D01*
X00374650Y00318850D02*
Y00328850D01*
X00369650Y00400050D02*
X00379650D01*
X00374650Y00395050D02*
Y00405050D01*
X00369650Y00374650D02*
X00379650D01*
X00374650Y00369650D02*
Y00379650D01*
X00369650Y00349250D02*
X00379650D01*
X00374650Y00344250D02*
Y00354250D01*
X00268050Y00425450D02*
X00278050D01*
X00273050Y00420450D02*
Y00430450D01*
X00268050Y00450850D02*
X00278050D01*
X00273050Y00445850D02*
Y00455850D01*
X00268050Y00476250D02*
X00278050D01*
X00273050Y00471250D02*
Y00481250D01*
X00268050Y00552450D02*
X00278050D01*
X00273050Y00547450D02*
Y00557450D01*
X00268050Y00527050D02*
X00278050D01*
X00273050Y00522050D02*
Y00532050D01*
X00268050Y00501650D02*
X00278050D01*
X00273050Y00496650D02*
Y00506650D01*
X00268050Y00273050D02*
X00278050D01*
X00273050Y00268050D02*
Y00278050D01*
X00268050Y00298450D02*
X00278050D01*
X00273050Y00293450D02*
Y00303450D01*
X00268050Y00323850D02*
X00278050D01*
X00273050Y00318850D02*
Y00328850D01*
X00268050Y00400050D02*
X00278050D01*
X00273050Y00395050D02*
Y00405050D01*
X00268050Y00374650D02*
X00278050D01*
X00273050Y00369650D02*
Y00379650D01*
X00268050Y00349250D02*
X00278050D01*
X00273050Y00344250D02*
Y00354250D01*
M02*
