G04*
G04 #@! TF.GenerationSoftware,Altium Limited,Altium Designer,21.2.2 (38)*
G04*
G04 Layer_Physical_Order=1*
G04 Layer_Color=255*
%FSAX44Y44*%
%MOMM*%
G71*
G04*
G04 #@! TF.SameCoordinates,B3D4D19D-0097-4332-AE52-39C81B215F30*
G04*
G04*
G04 #@! TF.FilePolarity,Positive*
G04*
G01*
G75*
%ADD12R,0.4700X0.2300*%
%ADD16C,0.2300*%
%ADD17C,1.8000*%
%ADD18R,1.8000X1.8000*%
D12*
X00312900Y00390750D02*
D03*
Y00394750D02*
D03*
Y00398750D02*
D03*
Y00402750D02*
D03*
Y00406750D02*
D03*
Y00410750D02*
D03*
Y00414750D02*
D03*
Y00418750D02*
D03*
Y00422750D02*
D03*
Y00426750D02*
D03*
Y00430750D02*
D03*
Y00434750D02*
D03*
X00334800Y00390750D02*
D03*
Y00394750D02*
D03*
Y00398750D02*
D03*
Y00402750D02*
D03*
Y00406750D02*
D03*
Y00410750D02*
D03*
Y00414750D02*
D03*
Y00418750D02*
D03*
Y00422750D02*
D03*
Y00426750D02*
D03*
Y00430750D02*
D03*
Y00434750D02*
D03*
D16*
X00342550Y00418750D02*
X00374650Y00450850D01*
X00334800Y00418750D02*
X00342550D01*
X00356750Y00458350D02*
X00374650Y00476250D01*
X00356750Y00438602D02*
Y00458350D01*
X00340897Y00422750D02*
X00356750Y00438602D01*
X00334800Y00422750D02*
X00340897D01*
X00339490Y00426750D02*
X00352926Y00440187D01*
X00347926Y00440594D02*
Y00500326D01*
X00338082Y00430750D02*
X00347926Y00440594D01*
X00334800Y00430750D02*
X00338082D01*
X00352926Y00440187D02*
Y00479926D01*
X00374650Y00501650D01*
X00334800Y00426750D02*
X00339490D01*
X00347926Y00500326D02*
X00374650Y00527050D01*
X00334800Y00434750D02*
Y00512600D01*
X00374650Y00552450D01*
X00273050Y00273050D02*
X00312900Y00312900D01*
Y00390750D01*
X00292836Y00369036D02*
Y00388784D01*
X00296660Y00347460D02*
Y00387200D01*
X00273050Y00298450D02*
X00300484Y00325884D01*
Y00385616D01*
X00309618Y00394750D01*
X00308210Y00398750D02*
X00312900D01*
X00296660Y00387200D02*
X00308210Y00398750D01*
X00306803Y00402750D02*
X00312900D01*
X00292836Y00388784D02*
X00306803Y00402750D01*
X00309618Y00394750D02*
X00312900D01*
X00273050Y00323850D02*
X00296660Y00347460D01*
X00273050Y00349250D02*
X00292836Y00369036D01*
X00273050Y00374650D02*
X00305150Y00406750D01*
X00312900D01*
X00273050Y00400050D02*
X00283750Y00410750D01*
X00312900D01*
X00273050Y00425450D02*
X00283750Y00414750D01*
X00312900D01*
X00305150Y00418750D02*
X00312900D01*
X00273050Y00450850D02*
X00305150Y00418750D01*
X00285188Y00444364D02*
Y00464112D01*
X00306803Y00422750D02*
X00312900D01*
X00285188Y00444364D02*
X00306803Y00422750D01*
X00309618Y00430750D02*
X00312900D01*
X00292836Y00447532D02*
X00309618Y00430750D01*
X00273050Y00476250D02*
X00285188Y00464112D01*
X00292836Y00447532D02*
Y00507264D01*
X00289012Y00445948D02*
Y00485688D01*
X00308210Y00426750D02*
X00312900D01*
X00289012Y00445948D02*
X00308210Y00426750D01*
X00273050Y00501650D02*
X00289012Y00485688D01*
X00273050Y00527050D02*
X00292836Y00507264D01*
X00312900Y00434750D02*
Y00512600D01*
X00273050Y00552450D02*
X00312900Y00512600D01*
X00334800Y00312900D02*
X00374650Y00273050D01*
X00334800Y00312900D02*
Y00390750D01*
X00347250Y00325850D02*
X00374650Y00298450D01*
X00347250Y00325850D02*
Y00338750D01*
X00347216Y00338784D02*
X00347250Y00338750D01*
X00347216Y00338784D02*
Y00385616D01*
X00354864Y00369036D02*
X00374650Y00349250D01*
X00354864Y00369036D02*
Y00388784D01*
X00351040Y00347460D02*
X00374650Y00323850D01*
X00338082Y00394750D02*
X00347216Y00385616D01*
X00334800Y00394750D02*
X00338082D01*
X00334800Y00398750D02*
X00339490D01*
X00351040Y00387200D01*
Y00347460D02*
Y00387200D01*
X00334800Y00402750D02*
X00340897D01*
X00354864Y00388784D01*
X00361000Y00388300D02*
Y00397750D01*
Y00388300D02*
X00374650Y00374650D01*
X00352000Y00406750D02*
X00361000Y00397750D01*
X00334800Y00406750D02*
X00352000D01*
X00363950Y00410750D02*
X00374650Y00400050D01*
X00334800Y00410750D02*
X00363950D01*
X00334800Y00414750D02*
X00363950D01*
X00374650Y00425450D01*
D17*
D03*
Y00450850D02*
D03*
X00374650Y00476250D02*
D03*
X00374650Y00527050D02*
D03*
X00374650Y00501650D02*
D03*
X00374650Y00273050D02*
D03*
Y00298450D02*
D03*
X00374650Y00323850D02*
D03*
X00374650Y00374650D02*
D03*
X00374650Y00349250D02*
D03*
X00273050Y00425450D02*
D03*
X00273050Y00450850D02*
D03*
X00273050Y00476250D02*
D03*
X00273050Y00527050D02*
D03*
Y00501650D02*
D03*
X00273050Y00273050D02*
D03*
Y00298450D02*
D03*
X00273050Y00323850D02*
D03*
X00273050Y00374650D02*
D03*
X00273050Y00349250D02*
D03*
D18*
X00374650Y00552450D02*
D03*
Y00400050D02*
D03*
X00273050Y00552450D02*
D03*
X00273050Y00400050D02*
D03*
M02*
