G04*
G04 #@! TF.GenerationSoftware,Altium Limited,Altium Designer,21.2.2 (38)*
G04*
G04 Layer_Color=2752767*
%FSAX44Y44*%
%MOMM*%
G71*
G04*
G04 #@! TF.SameCoordinates,B3D4D19D-0097-4332-AE52-39C81B215F30*
G04*
G04*
G04 #@! TF.FilePolarity,Positive*
G04*
G01*
G75*
%ADD20C,0.0508*%
D20*
X00372618Y00423418D02*
Y00427482D01*
X00376682D01*
Y00423418D01*
X00372618D01*
Y00448818D02*
Y00452882D01*
X00376682D01*
Y00448818D01*
X00372618D01*
X00372618Y00474218D02*
Y00478282D01*
X00376682D01*
Y00474218D01*
X00372618D01*
X00372618Y00550418D02*
Y00554482D01*
X00376682D01*
Y00550418D01*
X00372618D01*
X00372618Y00525018D02*
Y00529082D01*
X00376682D01*
Y00525018D01*
X00372618D01*
X00372618Y00499618D02*
Y00503682D01*
X00376682D01*
Y00499618D01*
X00372618D01*
X00372618Y00271018D02*
Y00275082D01*
X00376682D01*
Y00271018D01*
X00372618D01*
Y00296418D02*
Y00300482D01*
X00376682D01*
Y00296418D01*
X00372618D01*
X00372618Y00321818D02*
Y00325882D01*
X00376682D01*
Y00321818D01*
X00372618D01*
X00372618Y00398018D02*
Y00402082D01*
X00376682D01*
Y00398018D01*
X00372618D01*
Y00372618D02*
Y00376682D01*
X00376682D01*
Y00372618D01*
X00372618D01*
X00372618Y00347218D02*
Y00351282D01*
X00376682D01*
Y00347218D01*
X00372618D01*
X00271018Y00423418D02*
Y00427482D01*
X00275082D01*
Y00423418D01*
X00271018D01*
X00271018Y00448818D02*
Y00452882D01*
X00275082D01*
Y00448818D01*
X00271018D01*
X00271018Y00474218D02*
Y00478282D01*
X00275082D01*
Y00474218D01*
X00271018D01*
X00271018Y00550418D02*
Y00554482D01*
X00275082D01*
Y00550418D01*
X00271018D01*
Y00525018D02*
Y00529082D01*
X00275082D01*
Y00525018D01*
X00271018D01*
Y00499618D02*
Y00503682D01*
X00275082D01*
Y00499618D01*
X00271018D01*
X00271018Y00271018D02*
Y00275082D01*
X00275082D01*
Y00271018D01*
X00271018D01*
Y00296418D02*
Y00300482D01*
X00275082D01*
Y00296418D01*
X00271018D01*
X00271018Y00321818D02*
Y00325882D01*
X00275082D01*
Y00321818D01*
X00271018D01*
X00271018Y00398018D02*
Y00402082D01*
X00275082D01*
Y00398018D01*
X00271018D01*
X00271018Y00372618D02*
Y00376682D01*
X00275082D01*
Y00372618D01*
X00271018D01*
X00271018Y00347218D02*
Y00351282D01*
X00275082D01*
Y00347218D01*
X00271018D01*
M02*
