G04*
G04 #@! TF.GenerationSoftware,Altium Limited,Altium Designer,21.2.2 (38)*
G04*
G04 Layer_Color=16711935*
%FSAX44Y44*%
%MOMM*%
G71*
G04*
G04 #@! TF.SameCoordinates,B3D4D19D-0097-4332-AE52-39C81B215F30*
G04*
G04*
G04 #@! TF.FilePolarity,Negative*
G04*
G01*
G75*
%ADD14C,2.0032*%
%ADD15R,2.0032X2.0032*%
D14*
X00374650Y00425450D02*
D03*
Y00450850D02*
D03*
X00374650Y00476250D02*
D03*
X00374650Y00527050D02*
D03*
X00374650Y00501650D02*
D03*
X00374650Y00273050D02*
D03*
Y00298450D02*
D03*
X00374650Y00323850D02*
D03*
X00374650Y00374650D02*
D03*
X00374650Y00349250D02*
D03*
X00273050Y00425450D02*
D03*
X00273050Y00450850D02*
D03*
X00273050Y00476250D02*
D03*
X00273050Y00527050D02*
D03*
Y00501650D02*
D03*
X00273050Y00273050D02*
D03*
Y00298450D02*
D03*
X00273050Y00323850D02*
D03*
X00273050Y00374650D02*
D03*
X00273050Y00349250D02*
D03*
D15*
X00374650Y00552450D02*
D03*
Y00400050D02*
D03*
X00273050Y00552450D02*
D03*
X00273050Y00400050D02*
D03*
M02*
