G04*
G04 #@! TF.GenerationSoftware,Altium Limited,Altium Designer,21.2.2 (38)*
G04*
G04 Layer_Color=32768*
%FSAX44Y44*%
%MOMM*%
G71*
G04*
G04 #@! TF.SameCoordinates,B3D4D19D-0097-4332-AE52-39C81B215F30*
G04*
G04*
G04 #@! TF.FilePolarity,Positive*
G04*
G01*
G75*
%ADD19C,0.1000*%
D19*
X00343850Y00367750D02*
Y00457750D01*
X00303850Y00367750D02*
Y00457750D01*
Y00367750D02*
X00343850D01*
X00303850Y00457750D02*
X00343850D01*
X00319850Y00412750D02*
X00327850D01*
X00323850Y00408750D02*
Y00416750D01*
X00358650Y00568550D02*
X00358650Y00409350D01*
X00374650Y00483950D02*
X00374650Y00493950D01*
X00369650Y00488950D02*
X00379650D01*
X00358650Y00568550D02*
X00390650Y00568550D01*
X00390650Y00409350D01*
X00358650D02*
X00390650D01*
X00358650Y00416150D02*
X00358650Y00256950D01*
X00374650Y00331550D02*
X00374650Y00341550D01*
X00369650Y00336550D02*
X00379650Y00336550D01*
X00358650Y00416150D02*
X00390650Y00416150D01*
X00390650Y00256950D01*
X00358650Y00256950D02*
X00390650Y00256950D01*
X00257050Y00409350D02*
X00257050Y00568550D01*
X00273050Y00483950D02*
Y00493950D01*
X00268050Y00488950D02*
X00278050D01*
X00257050Y00568550D02*
X00289050Y00568550D01*
X00289050Y00409350D01*
X00257050D02*
X00289050D01*
X00257050Y00416150D02*
X00257050Y00256950D01*
X00273050Y00331550D02*
X00273050Y00341550D01*
X00268050Y00336550D02*
X00278050D01*
X00257050Y00416150D02*
X00289050Y00416150D01*
X00289050Y00256950D01*
X00257050D02*
X00289050D01*
M02*
