M48
;Layer_Color=9474304
;FILE_FORMAT=4:4
METRIC
;TYPE=PLATED
T1F00S00C1.0000
%
T01
X00273050Y00273050
Y00298450
X00273050Y00323850
Y00349250
X00273050Y00374650
X00374650
X00374650Y00349250
X00374650Y00323850
X00374650Y00298450
Y00273050
Y00400050
Y00425450
Y00450850
X00374650Y00476250
Y00501650
X00374650Y00527050
X00374650Y00552450
X00273050Y00552450
Y00527050
Y00501650
X00273050Y00476250
X00273050Y00450850
X00273050Y00425450
Y00400050
M30
